<svg width="25" height="25" viewBox="0 0 25 25" fill="none" xmlns="http://www.w3.org/2000/svg">
<path d="M15.5002 18.5V19.25C15.5002 20.0456 15.1842 20.8087 14.6216 21.3713C14.0589 21.9339 13.2959 22.25 12.5002 22.25C11.7046 22.25 10.9415 21.9339 10.3789 21.3713C9.8163 20.8087 9.50023 20.0456 9.50023 19.25V18.5M20.5477 16.9733C19.344 15.5 18.4941 14.75 18.4941 10.6883C18.4941 6.96875 16.5948 5.64359 15.0315 5C14.8238 4.91469 14.6284 4.71875 14.5651 4.50547C14.2909 3.57219 13.5221 2.75 12.5002 2.75C11.4784 2.75 10.7091 3.57266 10.4377 4.50641C10.3745 4.72203 10.179 4.91469 9.97133 5C8.40617 5.64453 6.50867 6.965 6.50867 10.6883C6.50633 14.75 5.65648 15.5 4.45273 16.9733C3.95398 17.5836 4.39086 18.5 5.2632 18.5H19.742C20.6096 18.5 21.0437 17.5808 20.5477 16.9733Z" stroke="#B6B6B6" stroke-width="1.5" stroke-linecap="round" stroke-linejoin="round"/>
</svg>
