<svg width="16" height="16" viewBox="0 0 16 16" fill="none" xmlns="http://www.w3.org/2000/svg">
<path d="M13 3.66406L12.7321 8.00156M3 3.66406L3.40307 10.3472C3.5063 12.0589 3.55792 12.9147 3.98579 13.5301C4.19733 13.8344 4.46987 14.0912 4.78604 14.2842C5.23356 14.5574 5.78738 14.6394 6.66667 14.6641" stroke="#FF0000" stroke-width="1.5" stroke-linecap="round"/>
<path d="M13.3346 10L8.66797 14.6664M13.3346 14.6667L8.66797 10.0003" stroke="#FF0000" stroke-width="1.5" stroke-linecap="round" stroke-linejoin="round"/>
<path d="M2 3.66536H14M10.7038 3.66536L10.2487 2.72652C9.94638 2.10287 9.79522 1.79105 9.53448 1.59657C9.47664 1.55343 9.4154 1.51506 9.35135 1.48183C9.06261 1.33203 8.71608 1.33203 8.02302 1.33203C7.31255 1.33203 6.95732 1.33203 6.66379 1.48811C6.59873 1.5227 6.53666 1.56263 6.4782 1.60748C6.21443 1.80983 6.06709 2.13307 5.7724 2.77954L5.36862 3.66536" stroke="#FF0000" stroke-width="1.5" stroke-linecap="round"/>
</svg>
