<svg width="236" height="249" viewBox="0 0 236 249" fill="none" xmlns="http://www.w3.org/2000/svg">
<path d="M150.461 221.305C197.703 206.273 221.467 153.443 203.539 103.306C185.612 53.169 132.781 24.7109 85.5392 39.743C38.2972 54.775 14.5332 107.605 32.4608 157.742C50.3884 207.879 103.219 236.337 150.461 221.305Z" fill="#F5F5FF"/>
<path d="M204.917 195.827H35.2769C31.1135 195.827 27.7383 192.451 27.7383 188.288V81.6441C27.7383 77.4807 31.1135 74.1055 35.2769 74.1055H204.917C209.081 74.1055 212.456 77.4807 212.456 81.6441V188.288C212.456 192.451 209.081 195.827 204.917 195.827Z" fill="#D0D0D0"/>
<path d="M204.917 74.1055H35.2769C31.1135 74.1055 27.7383 77.4807 27.7383 81.6441V89.0536H212.455V81.6441C212.456 77.4807 209.081 74.1055 204.917 74.1055Z" fill="#F1F1F1"/>
<path d="M181.814 84.4874C183.288 84.4874 184.483 83.2922 184.483 81.8179C184.483 80.3436 183.288 79.1484 181.814 79.1484C180.34 79.1484 179.145 80.3436 179.145 81.8179C179.145 83.2922 180.34 84.4874 181.814 84.4874Z" stroke="black" stroke-miterlimit="10" stroke-linejoin="round"/>
<path d="M191.794 84.4874C193.269 84.4874 194.464 83.2922 194.464 81.8179C194.464 80.3436 193.269 79.1484 191.794 79.1484C190.32 79.1484 189.125 80.3436 189.125 81.8179C189.125 83.2922 190.32 84.4874 191.794 84.4874Z" stroke="black" stroke-miterlimit="10" stroke-linejoin="round"/>
<path d="M201.775 84.4874C203.249 84.4874 204.444 83.2922 204.444 81.8179C204.444 80.3436 203.249 79.1484 201.775 79.1484C200.301 79.1484 199.105 80.3436 199.105 81.8179C199.105 83.2922 200.301 84.4874 201.775 84.4874Z" stroke="black" stroke-miterlimit="10" stroke-linejoin="round"/>
<path d="M103.481 111.411C101.376 111.411 99.3381 110.005 97.7217 108.655L95.7536 107.013C94.5365 105.997 93.09 105.453 91.608 105.453H74.8171C73.2935 105.453 72.0586 106.688 72.0586 108.212V111.411V170.056C72.0586 172.102 73.7165 173.759 75.7611 173.759H160.519C162.565 173.759 164.222 172.101 164.222 170.056V115.114C164.222 113.069 162.564 111.412 160.519 111.412H103.481V111.411Z" fill="#F1F1F1"/>
<path d="M157.471 123.273H133.494C132.425 123.273 131.559 122.407 131.559 121.338C131.559 120.269 132.425 119.402 133.494 119.402H157.471C158.54 119.402 159.407 120.269 159.407 121.338C159.407 122.407 158.54 123.273 157.471 123.273Z" stroke="black" stroke-miterlimit="10"/>
<path d="M188.119 0.528877C200.736 0.872487 211.175 10.9782 211.901 23.579C212.328 30.9885 209.456 37.7308 204.624 42.4872C203.91 43.19 203.579 44.1918 203.746 45.1796L205.56 55.9184L194.395 49.4128C193.759 49.0425 193.009 48.9059 192.288 49.0521C189.558 49.6028 186.666 49.7037 183.686 49.2525C172.655 47.5812 164.049 38.4499 163.032 27.3394C161.676 12.5322 173.503 0.130348 188.119 0.528877Z" fill="#F1F1F1"/>
<path d="M186.761 35.9736C186.422 35.9736 186.162 35.866 185.982 35.6515C185.801 35.437 185.711 35.138 185.711 34.7535C185.711 34.3921 185.807 34.0982 185.999 33.8726C186.19 33.647 186.445 33.5335 186.761 33.5335C187.122 33.5335 187.388 33.6411 187.557 33.8555C187.727 34.0708 187.812 34.3698 187.812 34.7535C187.812 35.0927 187.721 35.3806 187.54 35.6181C187.359 35.8549 187.1 35.9736 186.761 35.9736ZM186.553 27.534C186.527 26.8342 186.501 26.1165 186.475 25.3818C186.449 24.6478 186.43 23.9131 186.417 23.1784C186.404 22.4444 186.41 21.6926 186.437 20.9245V11.9766H187.287L187.326 20.9245C187.326 21.6926 187.319 22.4444 187.307 23.1784C187.293 23.9131 187.274 24.6478 187.249 25.3818C187.222 26.1165 187.197 26.8342 187.171 27.534H186.553Z" fill="black"/>
<path d="M91.5645 150.672V140.172H92.6295L99.4995 149.262L99.2895 149.532C99.2595 149.372 99.2345 149.132 99.2145 148.812C99.2045 148.492 99.1895 148.132 99.1695 147.732C99.1595 147.322 99.1495 146.897 99.1395 146.457C99.1295 146.017 99.1195 145.587 99.1095 145.167C99.1095 144.747 99.1095 144.367 99.1095 144.027V140.172H100.28V150.672H99.1845L92.3445 141.702L92.5245 141.387C92.5545 141.787 92.5795 142.182 92.5995 142.572C92.6295 142.962 92.6495 143.337 92.6595 143.697C92.6795 144.057 92.6945 144.387 92.7045 144.687C92.7145 144.987 92.7195 145.242 92.7195 145.452C92.7295 145.662 92.7345 145.812 92.7345 145.902V150.672H91.5645ZM106.386 150.822C105.606 150.822 104.911 150.647 104.301 150.297C103.701 149.947 103.226 149.462 102.876 148.842C102.536 148.222 102.366 147.517 102.366 146.727C102.366 145.947 102.536 145.252 102.876 144.642C103.226 144.032 103.701 143.552 104.301 143.202C104.911 142.852 105.606 142.677 106.386 142.677C107.156 142.677 107.841 142.852 108.441 143.202C109.051 143.552 109.526 144.032 109.866 144.642C110.216 145.252 110.391 145.947 110.391 146.727C110.391 147.517 110.216 148.222 109.866 148.842C109.526 149.462 109.051 149.947 108.441 150.297C107.841 150.647 107.156 150.822 106.386 150.822ZM106.386 149.757C106.936 149.757 107.426 149.627 107.856 149.367C108.286 149.097 108.621 148.737 108.861 148.287C109.101 147.827 109.221 147.307 109.221 146.727C109.221 146.147 109.101 145.632 108.861 145.182C108.621 144.732 108.286 144.382 107.856 144.132C107.426 143.872 106.936 143.742 106.386 143.742C105.836 143.742 105.341 143.872 104.901 144.132C104.471 144.382 104.131 144.737 103.881 145.197C103.641 145.647 103.526 146.157 103.536 146.727C103.526 147.307 103.641 147.827 103.881 148.287C104.131 148.737 104.471 149.097 104.901 149.367C105.341 149.627 105.836 149.757 106.386 149.757ZM116.687 150.672V140.172H120.647C121.367 140.172 122.022 140.302 122.612 140.562C123.212 140.812 123.732 141.172 124.172 141.642C124.612 142.112 124.952 142.667 125.192 143.307C125.432 143.947 125.552 144.652 125.552 145.422C125.552 146.192 125.432 146.902 125.192 147.552C124.952 148.192 124.612 148.747 124.172 149.217C123.742 149.677 123.227 150.037 122.627 150.297C122.027 150.547 121.367 150.672 120.647 150.672H116.687ZM117.857 149.742L117.722 149.532H120.572C121.122 149.532 121.627 149.437 122.087 149.247C122.557 149.047 122.957 148.767 123.287 148.407C123.627 148.037 123.887 147.602 124.067 147.102C124.257 146.602 124.352 146.042 124.352 145.422C124.352 144.802 124.257 144.242 124.067 143.742C123.887 143.242 123.627 142.812 123.287 142.452C122.947 142.082 122.547 141.802 122.087 141.612C121.627 141.412 121.122 141.312 120.572 141.312H117.677L117.857 141.132V149.742ZM130.444 150.822C129.764 150.822 129.149 150.647 128.599 150.297C128.049 149.937 127.614 149.452 127.294 148.842C126.974 148.222 126.814 147.522 126.814 146.742C126.814 145.952 126.979 145.252 127.309 144.642C127.639 144.032 128.079 143.552 128.629 143.202C129.189 142.852 129.814 142.677 130.504 142.677C130.914 142.677 131.294 142.737 131.644 142.857C131.994 142.977 132.304 143.147 132.574 143.367C132.854 143.577 133.084 143.827 133.264 144.117C133.454 144.397 133.584 144.702 133.654 145.032L133.324 144.867L133.369 142.842H134.494V150.672H133.354V148.752L133.654 148.557C133.584 148.857 133.449 149.147 133.249 149.427C133.049 149.697 132.804 149.937 132.514 150.147C132.234 150.357 131.914 150.522 131.554 150.642C131.204 150.762 130.834 150.822 130.444 150.822ZM130.699 149.742C131.219 149.742 131.684 149.617 132.094 149.367C132.504 149.107 132.824 148.752 133.054 148.302C133.294 147.842 133.414 147.322 133.414 146.742C133.414 146.162 133.294 145.647 133.054 145.197C132.824 144.747 132.504 144.392 132.094 144.132C131.684 143.872 131.219 143.742 130.699 143.742C130.169 143.742 129.699 143.872 129.289 144.132C128.889 144.392 128.569 144.747 128.329 145.197C128.099 145.647 127.984 146.162 127.984 146.742C127.984 147.312 128.099 147.827 128.329 148.287C128.559 148.737 128.879 149.092 129.289 149.352C129.699 149.612 130.169 149.742 130.699 149.742ZM137.766 150.672V140.787H138.891V150.672H137.766ZM135.996 143.922V142.842H140.871V143.922H135.996ZM145.239 150.822C144.559 150.822 143.944 150.647 143.394 150.297C142.844 149.937 142.409 149.452 142.089 148.842C141.769 148.222 141.609 147.522 141.609 146.742C141.609 145.952 141.774 145.252 142.104 144.642C142.434 144.032 142.874 143.552 143.424 143.202C143.984 142.852 144.609 142.677 145.299 142.677C145.709 142.677 146.089 142.737 146.439 142.857C146.789 142.977 147.099 143.147 147.369 143.367C147.649 143.577 147.879 143.827 148.059 144.117C148.249 144.397 148.379 144.702 148.449 145.032L148.119 144.867L148.164 142.842H149.289V150.672H148.149V148.752L148.449 148.557C148.379 148.857 148.244 149.147 148.044 149.427C147.844 149.697 147.599 149.937 147.309 150.147C147.029 150.357 146.709 150.522 146.349 150.642C145.999 150.762 145.629 150.822 145.239 150.822ZM145.494 149.742C146.014 149.742 146.479 149.617 146.889 149.367C147.299 149.107 147.619 148.752 147.849 148.302C148.089 147.842 148.209 147.322 148.209 146.742C148.209 146.162 148.089 145.647 147.849 145.197C147.619 144.747 147.299 144.392 146.889 144.132C146.479 143.872 146.014 143.742 145.494 143.742C144.964 143.742 144.494 143.872 144.084 144.132C143.684 144.392 143.364 144.747 143.124 145.197C142.894 145.647 142.779 146.162 142.779 146.742C142.779 147.312 142.894 147.827 143.124 148.287C143.354 148.737 143.674 149.092 144.084 149.352C144.494 149.612 144.964 149.742 145.494 149.742Z" fill="black"/>
</svg>
