<svg width="24" height="24" viewBox="0 0 24 24" fill="none" xmlns="http://www.w3.org/2000/svg">
<g clip-path="url(#clip0_213_263)">
<path d="M6.05 5.99998C6.54431 5.99 7.02456 5.83367 7.43003 5.55076C7.8355 5.26785 8.14799 4.87108 8.32797 4.41059C8.50796 3.9501 8.54736 3.44659 8.44121 2.96371C8.33505 2.48083 8.0881 2.04027 7.73158 1.69773C7.37506 1.35519 6.92497 1.12605 6.43823 1.03929C5.9515 0.952523 5.44996 1.01203 4.99704 1.21028C4.54412 1.40854 4.16015 1.73663 3.89368 2.15309C3.62722 2.56955 3.49021 3.05567 3.5 3.54998C3.5065 3.8783 3.57762 4.20213 3.7093 4.50296C3.84099 4.80379 4.03064 5.07574 4.26745 5.30325C4.50425 5.53077 4.78356 5.7094 5.08941 5.82895C5.39527 5.94849 5.72168 6.00661 6.05 5.99998Z" fill="#939393"/>
<path d="M7.99992 18C7.7347 18 7.48035 18.1054 7.29281 18.2929C7.10527 18.4804 6.99992 18.7348 6.99992 19V21H4.99992V16H2.99992V10C2.99992 9.73478 3.10527 9.48043 3.29281 9.29289C3.48035 9.10536 3.7347 9 3.99992 9H6.99992C7.26513 9 7.51949 8.89464 7.70702 8.70711C7.89456 8.51957 7.99992 8.26522 7.99992 8C7.99992 7.73478 7.89456 7.48043 7.70702 7.29289C7.51949 7.10536 7.26513 7 6.99992 7H3.99992C3.20427 7 2.44121 7.31607 1.8786 7.87868C1.31599 8.44129 0.999917 9.20435 0.999917 10V16.5C0.992933 16.6989 1.02695 16.897 1.09986 17.0822C1.17278 17.2673 1.28301 17.4355 1.42372 17.5762C1.56442 17.7169 1.73258 17.8271 1.91773 17.9001C2.10288 17.973 2.30105 18.007 2.49992 18H2.99992V21.5C2.99293 21.6989 3.02695 21.897 3.09987 22.0822C3.17278 22.2673 3.28301 22.4355 3.42372 22.5762C3.56442 22.7169 3.73258 22.8271 3.91773 22.9001C4.10288 22.973 4.30105 23.007 4.49992 23H7.49992C7.69878 23.007 7.89695 22.973 8.0821 22.9001C8.26725 22.8271 8.43541 22.7169 8.57612 22.5762C8.71682 22.4355 8.82706 22.2673 8.89997 22.0822C8.97288 21.897 9.0069 21.6989 8.99992 21.5V19C8.99992 18.7348 8.89456 18.4804 8.70702 18.2929C8.51949 18.1054 8.26513 18 7.99992 18Z" fill="#939393"/>
<path d="M18.05 5.99998C18.5443 5.99 19.0246 5.83367 19.43 5.55076C19.8355 5.26785 20.148 4.87108 20.328 4.41059C20.508 3.9501 20.5474 3.44659 20.4412 2.96371C20.3351 2.48083 20.0881 2.04027 19.7316 1.69773C19.3751 1.35519 18.925 1.12605 18.4382 1.03929C17.9515 0.952523 17.45 1.01203 16.997 1.21028C16.5441 1.40854 16.1601 1.73663 15.8937 2.15309C15.6272 2.56955 15.4902 3.05567 15.5 3.54998C15.5065 3.8783 15.5776 4.20213 15.7093 4.50296C15.841 4.80379 16.0306 5.07574 16.2674 5.30325C16.5042 5.53077 16.7836 5.7094 17.0894 5.82895C17.3953 5.94849 17.7217 6.00661 18.05 5.99998Z" fill="#939393"/>
<path d="M19.9999 7H16.4999C16.2347 7 15.9803 7.10536 15.7928 7.29289C15.6053 7.48043 15.4999 7.73478 15.4999 8C15.4999 8.26522 15.6053 8.51957 15.7928 8.70711C15.9803 8.89464 16.2347 9 16.4999 9H19.9999C20.2651 9 20.5195 9.10536 20.707 9.29289C20.8946 9.48043 20.9999 9.73478 20.9999 10V16H18.9999V21H16.9999V19C16.9999 18.7348 16.8946 18.4804 16.707 18.2929C16.5195 18.1054 16.2651 18 15.9999 18C15.7347 18 15.4803 18.1054 15.2928 18.2929C15.1053 18.4804 14.9999 18.7348 14.9999 19V21.5C14.9929 21.6989 15.027 21.897 15.0999 22.0822C15.1728 22.2673 15.283 22.4355 15.4237 22.5762C15.5644 22.7169 15.7326 22.8271 15.9177 22.9001C16.1029 22.973 16.3011 23.007 16.4999 23H19.4999C19.6988 23.007 19.897 22.973 20.0821 22.9001C20.2673 22.8271 20.4354 22.7169 20.5761 22.5762C20.7168 22.4355 20.8271 22.2673 20.9 22.0822C20.9729 21.897 21.0069 21.6989 20.9999 21.5V18H21.4999C21.6988 18.007 21.897 17.973 22.0821 17.9001C22.2673 17.8271 22.4354 17.7169 22.5761 17.5762C22.7168 17.4355 22.8271 17.2673 22.9 17.0822C22.9729 16.897 23.0069 16.6989 22.9999 16.5V10C22.9999 9.20435 22.6838 8.44129 22.1212 7.87868C21.5586 7.31607 20.7956 7 19.9999 7Z" fill="#939393"/>
<path d="M15.7001 16.7001L18.9001 13.5001L15.7001 10.3001C15.5075 10.1557 15.2693 10.0856 15.0292 10.1026C14.7891 10.1197 14.5632 10.2228 14.393 10.393C14.2228 10.5632 14.1197 10.7891 14.1026 11.0292C14.0856 11.2693 14.1557 11.5075 14.3001 11.7001L15.1001 12.5001H8.9001L9.7001 11.7001C9.84453 11.5075 9.91465 11.2693 9.89758 11.0292C9.88052 10.7891 9.77742 10.5632 9.60721 10.393C9.43699 10.2228 9.2111 10.1197 8.97099 10.1026C8.73088 10.0856 8.49267 10.1557 8.3001 10.3001L5.1001 13.5001L8.3001 16.7001C8.38909 16.7971 8.49727 16.8745 8.61777 16.9275C8.73827 16.9805 8.86847 17.0078 9.0001 17.0078C9.13173 17.0078 9.26193 16.9805 9.38243 16.9275C9.50293 16.8745 9.61111 16.7971 9.7001 16.7001C9.79709 16.6111 9.87453 16.5029 9.92751 16.3824C9.98048 16.2619 10.0078 16.1317 10.0078 16.0001C10.0078 15.8685 9.98048 15.7383 9.92751 15.6178C9.87453 15.4973 9.79709 15.3891 9.7001 15.3001L8.9001 14.5001H15.1001L14.3001 15.3001C14.2031 15.3891 14.1257 15.4973 14.0727 15.6178C14.0197 15.7383 13.9924 15.8685 13.9924 16.0001C13.9924 16.1317 14.0197 16.2619 14.0727 16.3824C14.1257 16.5029 14.2031 16.6111 14.3001 16.7001C14.3891 16.7971 14.4973 16.8745 14.6178 16.9275C14.7383 16.9805 14.8685 17.0078 15.0001 17.0078C15.1317 17.0078 15.2619 16.9805 15.3824 16.9275C15.5029 16.8745 15.6111 16.7971 15.7001 16.7001Z" fill="#939393"/>
</g>
<defs>
<clipPath id="clip0_213_263">
<rect width="24" height="24" fill="white"/>
</clipPath>
</defs>
</svg>
