<svg width="24" height="24" viewBox="0 0 24 24" fill="none" xmlns="http://www.w3.org/2000/svg">
<path d="M16 16L19 8L22.001 16C21.1353 16.649 20.0825 16.9999 19.0005 16.9999C17.9185 16.9999 16.8657 16.649 16 16Z" stroke="black" stroke-width="1.5" stroke-linecap="round" stroke-linejoin="round"/>
<path d="M2 16L5 8L8.001 16C7.1353 16.649 6.08248 16.9999 5.0005 16.9999C3.91852 16.9999 2.8657 16.649 2 16Z" stroke="black" stroke-width="1.5" stroke-linecap="round" stroke-linejoin="round"/>
<path d="M7 21H17" stroke="black" stroke-width="1.5" stroke-linecap="round" stroke-linejoin="round"/>
<path d="M12 3V21" stroke="black" stroke-width="1.5" stroke-linecap="round" stroke-linejoin="round"/>
<path d="M3 7H5C7 7 10 6 12 5C14 6 17 7 19 7H21" stroke="black" stroke-width="1.5" stroke-linecap="round" stroke-linejoin="round"/>
</svg>
