<svg width="24" height="24" viewBox="0 0 24 24" fill="none" xmlns="http://www.w3.org/2000/svg">
<path d="M10.5975 10.7061C9.97125 11.2648 8.97 11.1261 8.49375 10.6048L19.1963 7.1998V13.7638L18.6963 13.3579M10.5975 10.7061C10.5994 10.7042 10.6022 10.7032 10.605 10.7023C10.6078 10.7014 10.6106 10.7004 10.6125 10.6986L13.6088 7.95355C13.8525 7.7323 14.235 7.7473 14.4563 7.99105M10.5975 10.7061L10.4113 10.4973L10.2677 10.3364C10.2701 10.3342 10.2724 10.332 10.2747 10.3299C10.2983 10.3084 10.3211 10.2917 10.3411 10.2789C10.3653 10.2634 10.3867 10.2527 10.4022 10.2456C10.4176 10.2386 10.4302 10.2339 10.437 10.2314L10.445 10.2286M10.5975 10.7061L10.2439 10.3525C10.2502 10.3462 10.2564 10.3403 10.2627 10.3347M14.4563 7.99105C14.6813 8.2348 14.6625 8.61355 14.4188 8.83855L13.8128 9.39343L14.2052 9.71202M14.4563 7.99105L14.8265 7.655C14.826 7.65449 14.8255 7.65397 14.8251 7.65345M14.4563 7.99105L14.8237 7.65191C14.8241 7.65243 14.8246 7.65294 14.8251 7.65345M14.2052 9.71202L13.8324 10.0534L18.6963 14.0019V13.3579M14.2052 9.71202L18.6963 13.3579M14.2052 9.71202L14.7564 9.20731L14.7579 9.20596C15.2 8.79788 15.2396 8.1042 14.8251 7.65345M18.6963 13.3579V7.40691L16.7952 5.50586L16.7922 5.50289L16.7922 5.50288C16.6665 5.37502 16.4881 5.2998 16.3013 5.2998H13.08C12.9053 5.2998 12.7369 5.36526 12.6076 5.48358L12.2701 5.11488L12.6076 5.48364L8.95146 8.83106M14.8251 7.65345C14.4144 7.20277 13.7164 7.18056 13.2727 7.58332L13.271 7.58488L10.3135 10.2944M10.3135 10.2944C10.2975 10.3055 10.2802 10.3188 10.2627 10.3347M10.3135 10.2944L10.2747 10.3299L10.2677 10.3364L10.2646 10.333C10.264 10.3336 10.2633 10.3341 10.2627 10.3347M10.3135 10.2944C10.3189 10.2906 10.3242 10.2871 10.3292 10.2839C10.3545 10.2677 10.3772 10.2563 10.394 10.2486C10.4107 10.241 10.4247 10.2358 10.4328 10.2328L10.4429 10.2293L10.445 10.2286M10.2627 10.3347C10.0676 10.5077 9.80281 10.5832 9.52791 10.5619C9.24645 10.5402 9.00265 10.4205 8.86288 10.2675L8.86243 10.267C8.50513 9.87704 8.5021 9.25711 8.91491 8.86916L8.92055 8.86386L8.92602 8.85839C8.936 8.84841 8.9445 8.83909 8.95146 8.83106M8.95146 8.83106C8.95481 8.82719 8.9578 8.82362 8.96043 8.82041C8.96865 8.81039 8.97517 8.80169 8.97968 8.79549C8.98423 8.78923 8.98785 8.78399 8.99003 8.78078L8.99285 8.77658M8.95146 8.83106L8.92391 8.85628L8.92139 8.85858L8.869 8.80137L8.99285 8.77658M8.99285 8.77658C8.99399 8.77491 8.99488 8.77356 8.99417 8.77463L8.99285 8.77658ZM10.445 10.2286L10.4469 10.228L10.445 10.2286ZM17.5729 16.9177C17.3325 17.2165 16.8917 17.263 16.5902 17.0192C16.5901 17.0191 16.5899 17.0189 16.5898 17.0188L16.3883 16.8547L16.0004 16.5386L15.6846 16.9268L14.5071 18.3743L14.5067 18.3748C14.1976 18.7558 13.6355 18.8158 13.2551 18.5092L12.5898 17.9331L12.238 17.6284L11.9089 17.9575L11.9014 17.965L11.8834 17.9831L11.8672 18.0029C11.2073 18.8138 10.0176 18.9399 9.20523 18.2873L5.82175 15.2253L5.6789 15.0961H5.48625H5.3V7.40718L7.20448 5.50618L7.2048 5.50586C7.33722 5.37344 7.51428 5.2998 7.69875 5.2998H9.5548L7.43609 7.23979L7.43566 7.24019C6.1378 8.43137 6.04457 10.4535 7.23986 11.7598L7.24023 11.7602C8.41837 13.0451 10.4401 13.1606 11.7595 11.9567L11.7604 11.9559L12.5673 11.2162L17.8298 15.4882C17.83 15.4883 17.8302 15.4885 17.8304 15.4887C18.1308 15.7348 18.1764 16.1742 17.9305 16.4772L17.5743 16.9159L17.5729 16.9177ZM20.9 15.6036V7.7073H23.5V16.3036H21.6C21.2124 16.3036 20.9 15.9912 20.9 15.6036ZM21.1 15.0036C21.1 15.6097 21.5939 16.1036 22.2 16.1036C22.8061 16.1036 23.3 15.6097 23.3 15.0036C23.3 14.3974 22.8061 13.9036 22.2 13.9036C21.5939 13.9036 21.1 14.3974 21.1 15.0036ZM2.4 16.2998H0.5V7.7073H3.1V15.5998C3.1 15.9874 2.78761 16.2998 2.4 16.2998ZM2.9 15.0036C2.9 14.3974 2.40614 13.9036 1.8 13.9036C1.1959 13.9036 0.7 14.3916 0.7 15.0036C0.7 15.6097 1.19386 16.1036 1.8 16.1036C2.40614 16.1036 2.9 15.6097 2.9 15.0036Z" stroke="#939393"/>
</svg>
