<svg width="284" height="301" viewBox="0 0 284 301" fill="none" xmlns="http://www.w3.org/2000/svg">
<g opacity="0.2">
<path d="M275.5 127C275.5 135.009 269.008 141.5 261 141.5C252.992 141.5 246.5 135.009 246.5 127C246.5 118.992 252.992 112.5 261 112.5C269.008 112.5 275.5 118.992 275.5 127Z" fill="#FFF1B1"/>
<path fill-rule="evenodd" clip-rule="evenodd" d="M144.182 0.124518H189.318C215.966 0.124228 237.072 0.124084 253.591 2.34505C270.59 4.63054 284.351 9.44628 295.203 20.2975C308.605 33.7012 312.877 51.6522 314.428 74.9457C322.798 78.629 329.118 86.4184 329.814 96.2855C329.877 97.1584 329.875 98.0996 329.875 98.9711C329.875 99.0508 329.875 99.1291 329.875 99.2074V154.792C329.875 154.87 329.875 154.948 329.875 155.028C329.875 155.899 329.877 156.841 329.814 157.713C329.118 167.581 322.798 175.37 314.428 179.053C312.877 202.347 308.605 220.298 295.203 233.702C284.351 244.553 270.59 249.368 253.591 251.655C237.072 253.875 215.966 253.875 189.318 253.875H144.182C117.535 253.875 96.4278 253.875 79.9092 251.655C62.9091 249.368 49.1494 244.553 38.298 233.702C27.4468 222.85 22.631 209.09 20.3455 192.09C18.1246 175.572 18.1247 154.465 18.125 127.817V126.182C18.1247 99.5336 18.1246 78.4273 20.3455 61.9087C22.631 44.9087 27.4468 31.1489 38.298 20.2975C49.1494 9.44628 62.9091 4.63054 79.9092 2.34505C96.4278 0.124084 117.534 0.124228 144.182 0.124518ZM292.435 181.375H264.347C233.241 181.375 206.625 157.774 206.625 127C206.625 96.2242 233.241 72.6245 264.347 72.6245H292.435C290.785 53.1735 287.051 42.9058 279.823 35.6771C273.686 29.5405 265.28 25.8623 250.693 23.901C235.792 21.8976 216.149 21.8745 188.5 21.8745H145C117.351 21.8745 97.7084 21.8976 82.8073 23.901C68.219 25.8623 59.8141 29.5405 53.6776 35.6771C47.541 41.8136 43.8628 50.2185 41.9015 64.8069C39.8981 79.7079 39.875 99.3509 39.875 127C39.875 154.648 39.8981 174.291 41.9015 189.193C43.8628 203.78 47.541 212.186 53.6776 218.322C59.8141 224.458 68.219 228.137 82.8073 230.097C97.7084 232.101 117.351 232.125 145 232.125H188.5C216.149 232.125 235.792 232.101 250.693 230.097C265.28 228.137 273.686 224.458 279.823 218.322C287.051 211.094 290.785 200.826 292.435 181.375ZM76.125 68.9995C76.125 62.9935 80.994 58.1245 87 58.1245H145C151.006 58.1245 155.875 62.9935 155.875 68.9995C155.875 75.0056 151.006 79.8745 145 79.8745H87C80.994 79.8745 76.125 75.0056 76.125 68.9995ZM303.391 94.3779C303.096 94.3747 302.711 94.3745 302.083 94.3745H264.347C243.707 94.3745 228.375 109.726 228.375 127C228.375 144.273 243.707 159.625 264.347 159.625H302.083C302.711 159.625 303.096 159.625 303.391 159.622C303.572 159.619 303.668 159.617 303.713 159.614L303.745 159.613C306.735 159.432 308.019 157.415 308.118 156.201C308.118 156.201 308.121 156.11 308.122 155.979C308.125 155.721 308.125 155.379 308.125 154.792V99.2074C308.125 98.6201 308.125 98.2779 308.122 98.0198C308.121 97.8891 308.118 97.7978 308.118 97.7978C308.019 96.5846 306.735 94.5674 303.745 94.3856C303.745 94.3856 303.674 94.3808 303.391 94.3779Z" fill="#FFF1B1"/>
</g>
</svg>
